<svg width="570" height="600" viewBox="0 0 570 600" fill="none" xmlns="http://www.w3.org/2000/svg">
  <path fill="#6366f1" d="M504,0 C526.3,0 548.6,0 571,0 C571,173.3 571,345.7 570.6,518.2 C568,507.7 565.8,496.9 563.5,486.1 C558.7,463.8 553.8,441.6 549,419.4 C543.3,392.8 537.7,366.2 532,339.6 C527.6,319 523.3,298.3 518.9,277.7 C516.7,267.4 514.2,257.2 511.5,246.6 C505.9,245.8 500.4,245.6 495,244.9 C472.5,241.8 450.3,237.3 429.2,229.3 C410.5,222.3 392.4,213.6 374.2,205.5 C371.5,204.3 369.5,203.8 367,205.9 C363.6,208.5 360,210.8 356.4,213.2 C339.2,224.9 322.1,236.7 304.8,248.4 C302.5,249.9 302,251.1 302.7,253.9 C310.5,284.3 317.9,314.7 325.5,345.1 C327.6,353.5 329.9,361.8 332.3,370.8 C338.1,366.8 343.3,363.3 348.5,359.7 C358.9,352.5 369.3,345.2 379.8,338.4 C380.2,340.6 380.6,342.3 380.9,344.1 C384.9,364.3 388.9,384.5 392.8,404.7 C395,416.4 396.9,428.1 398.6,439.7 C323.3,421.9 248.2,421.7 173,437.4 C175.1,422.3 177.2,407.6 179.5,392.9 C181.2,381.7 183.2,370.5 184.9,359.3 C186.9,346.4 188.6,333.5 190.6,320.6 C192.3,309.5 194.2,298.5 195.9,287.4 C198.2,272.4 200.4,257.4 202.7,242.4 C204.4,231.4 206.2,220.3 207.9,209.2 C210.1,194.5 212.1,179.8 214.4,165.2 C216.2,153.4 218.1,141.7 220.5,130 C286,130 351.1,129.9 416.2,130 C420,130 422.1,128.9 424.2,125.7 C444,94.7 464.1,63.8 484,32.8 C490.8,22.2 497.3,11.6 504,0.9" />
  <path fill="#a5b4fc" d="M173,437.8 C248.2,421.7 323.3,421.9 398.9,439.9 C427,447.6 454.3,455.5 479.9,468 C499.4,477.6 518.5,488.1 537.2,499 C548.9,505.8 559.7,514.2 571,522 C571,522.4 571,522.8 570.6,523.6 C568.1,525 566,525.9 564,527 C526.8,547.9 489.6,568.8 452.5,589.8 C446.2,593.3 440.1,597.2 434,601 C433.2,601 432.5,601 431.2,600.7 C412.7,588.5 394.2,577.7 374,569.8 C347,559.3 319,554.1 290.3,553.1 C277.4,552.7 264.5,554.1 251.6,555 C234.4,556.2 217.6,560 201.3,565.4 C179.1,572.8 158.2,583.2 138.8,596.5 C135.8,598.7 133.2,599 129.9,597 C103,580.1 76,563.4 49.1,546.6 C33.1,536.7 17,526.8 1,517 C1,517 1,516.5 1.3,516.1 C16.8,505.8 31.7,495.4 47.3,486.3 C76.9,469.1 108.3,456 141.3,446.7 C151.9,443.8 162.4,440.8 173,437.8" />
  <path fill="#4f46e5" d="M173,437.4 C162.4,440.8 151.9,443.8 141.3,446.7 C108.3,456 76.9,469.1 47.3,486.3 C31.7,495.4 16.8,505.8 1.3,515.8 C1,514.2 1,512.5 1.3,510.1 C3,500.7 4.5,491.9 5.9,483.1 C8.8,466 11.6,448.9 14.5,431.9 C17.6,413 20.8,394.1 23.9,375.3 C26.8,358 29.4,340.7 32.2,323.5 C35.4,304.3 38.7,285.1 41.9,265.9 C45.1,247.1 48.2,228.2 51.3,209.3 C54.5,190.1 57.7,170.9 61,151.7 C62.2,144.4 63.7,137.2 65.4,129.9 C65.8,129.7 66,129.6 66.6,129.6 C115,129.6 163,129.7 211,129.7 C214,129.7 217,129.9 220,130 C218.1,141.7 216.2,153.4 214.4,165.2 C212.1,179.8 210.1,194.5 207.9,209.2 C206.2,220.3 204.4,231.4 202.7,242.4 C200.4,257.4 198.2,272.4 195.9,287.4 C194.2,298.5 192.3,309.5 190.6,320.6 C188.6,333.5 186.9,346.4 184.9,359.3 C183.2,370.5 181.2,381.7 179.5,392.9 C177.2,407.6 175.1,422.3 173,437.4" />
</svg>
